<svg width="17" height="17" viewBox="0 0 17 17" fill="none" xmlns="http://www.w3.org/2000/svg">
<path d="M1.75 2.5H2.67379C3.01358 2.5 3.31092 2.72844 3.39847 3.05675L3.65393 4.01473M5.25 10C4.14543 10 3.25 10.8954 3.25 12H13.75M5.25 10H12.7288C13.4762 8.46624 14.1285 6.87757 14.6778 5.24167C11.5034 4.43097 8.17701 4 4.75 4C4.38347 4 4.01809 4.00493 3.65393 4.01473M5.25 10L3.65393 4.01473M4.25 14C4.25 14.2761 4.02614 14.5 3.75 14.5C3.47386 14.5 3.25 14.2761 3.25 14C3.25 13.7239 3.47386 13.5 3.75 13.5C4.02614 13.5 4.25 13.7239 4.25 14ZM12.75 14C12.75 14.2761 12.5261 14.5 12.25 14.5C11.9739 14.5 11.75 14.2761 11.75 14C11.75 13.7239 11.9739 13.5 12.25 13.5C12.5261 13.5 12.75 13.7239 12.75 14Z" stroke="white" stroke-width="1.2" stroke-linecap="round" stroke-linejoin="round"/>
</svg>
